<svg aria-hidden="true" style="position: absolute; width: 0; height: 0; overflow: hidden;" version="1.1" xmlns="http://www.w3.org/2000/svg" xmlns:xlink="http://www.w3.org/1999/xlink">
<defs>
<symbol id="icon-twitter" viewBox="0 0 37 32">
<path stroke-linejoin="round" stroke-linecap="round" stroke-miterlimit="4" stroke-width="2.4615" d="M35.319 2.17c-1.385 0.988-2.989 1.79-4.712 2.322l-0.119 0.032c-1.27-1.455-3.129-2.369-5.201-2.369-3.807 0-6.892 3.086-6.892 6.892 0 0.033 0 0.065 0.001 0.097l-0-0.005v1.538c-0.127 0.004-0.276 0.006-0.426 0.006-5.527 0-10.415-2.734-13.386-6.923l-0.034-0.051s-6.154 13.846 7.692 20c-2.818 1.935-6.303 3.091-10.057 3.091-0.25 0-0.499-0.005-0.747-0.015l0.036 0.001c13.846 7.692 30.769 0 30.769-17.692-0.002-0.453-0.046-0.894-0.13-1.321l0.007 0.044c1.526-1.505 2.646-3.419 3.183-5.564l0.017-0.082z"></path>
</symbol>
<symbol id="icon-facebook" viewBox="0 0 33 32">
<path stroke-linejoin="round" stroke-linecap="round" stroke-miterlimit="4" stroke-width="2.1333" d="M24.506 2.667h-4c-3.682 0-6.667 2.985-6.667 6.667v0 4h-4v5.333h4v10.667h5.333v-10.667h4l1.333-5.333h-5.333v-4c0-0.736 0.597-1.333 1.333-1.333v0h4v-5.333z"></path>
</symbol>
<symbol id="icon-instagram" viewBox="0 0 32 32">
<path stroke-linejoin="round" stroke-linecap="round" stroke-miterlimit="4" stroke-width="2.1333" d="M22.667 2.667h-13.333c-3.682 0-6.667 2.985-6.667 6.667v0 13.333c0 3.682 2.985 6.667 6.667 6.667v0h13.333c3.682 0 6.667-2.985 6.667-6.667v0-13.333c0-3.682-2.985-6.667-6.667-6.667v0z"></path>
<path stroke-linejoin="round" stroke-linecap="round" stroke-miterlimit="4" stroke-width="2.1333" d="M21.333 15.159c0.037 0.235 0.058 0.506 0.058 0.782 0 2.946-2.388 5.333-5.333 5.333-2.669 0-4.881-1.961-5.272-4.521l-0.004-0.030c-0.037-0.235-0.058-0.506-0.058-0.782 0-2.946 2.388-5.333 5.333-5.333 2.669 0 4.881 1.961 5.272 4.521l0.004 0.030zM23.333 8.667h0.014"></path>
</symbol>
</defs>
</svg>
